<svg xmlns="http://www.w3.org/2000/svg" xmlns:xlink="http://www.w3.org/1999/xlink" width="252" zoomAndPan="magnify" viewBox="0 0 189 156.749997" height="209" preserveAspectRatio="xMidYMid meet" version="1.0"><defs><g/><clipPath id="1523b4ace8"><path d="M 163.839844 104.625 L 188.550781 104.625 L 188.550781 127 L 163.839844 127 Z M 163.839844 104.625 " clip-rule="nonzero"/></clipPath><clipPath id="db2cff0aa8"><rect x="0" width="145" y="0" height="79"/></clipPath></defs><g clip-path="url(#1523b4ace8)"><path fill="#f46e6a" d="M 187.398438 104.625 L 165.25 104.625 L 165.25 107.394531 L 187.398438 107.394531 Z M 188.785156 118.46875 L 188.785156 115.699219 L 187.398438 108.777344 L 165.25 108.777344 L 163.867188 115.699219 L 163.867188 118.46875 L 165.25 118.46875 L 165.25 126.773438 L 179.09375 126.773438 L 179.09375 118.46875 L 184.628906 118.46875 L 184.628906 126.773438 L 187.398438 126.773438 L 187.398438 118.46875 Z M 176.324219 124.003906 L 168.019531 124.003906 L 168.019531 118.46875 L 176.324219 118.46875 Z M 176.324219 124.003906 " fill-opacity="1" fill-rule="nonzero"/></g><g fill="#00598a" fill-opacity="1"><g transform="translate(169.494012, 44.500191)"><g><path d="M 0.21875 0 L 0.21875 -14.1875 L 6.046875 -14.1875 C 7.460938 -14.1875 8.644531 -14.039062 9.59375 -13.75 C 10.550781 -13.457031 11.3125 -13.054688 11.875 -12.546875 C 12.445312 -12.035156 12.851562 -11.441406 13.09375 -10.765625 C 13.332031 -10.097656 13.445312 -9.394531 13.4375 -8.65625 C 13.4375 -8.164062 13.351562 -7.679688 13.1875 -7.203125 C 13.03125 -6.722656 12.785156 -6.296875 12.453125 -5.921875 C 12.117188 -5.554688 11.691406 -5.285156 11.171875 -5.109375 L 13.9375 0 L 8.4375 0 L 5.859375 -5.375 L 5.859375 -7.3125 L 7.03125 -7.3125 C 7.425781 -7.3125 7.710938 -7.414062 7.890625 -7.625 C 8.078125 -7.832031 8.171875 -8.0625 8.171875 -8.3125 C 8.171875 -8.5625 8.078125 -8.785156 7.890625 -8.984375 C 7.710938 -9.191406 7.425781 -9.296875 7.03125 -9.296875 L 5.484375 -9.296875 L 5.484375 0 Z M 0.21875 0 "/></g></g></g><g fill="#00598a" fill-opacity="1"><g transform="translate(169.049408, 72.206002)"><g><path d="M 11.875 -14.1875 L 17.53125 0 L 11.875 0 L 8.6875 -8.8125 L 7.171875 -4.71875 L 9.78125 -4.71875 L 11.484375 0 L -0.046875 0 L 5.515625 -14.1875 Z M 11.875 -14.1875 "/></g></g></g><g fill="#00598a" fill-opacity="1"><g transform="translate(173.483742, 99.911812)"><g><path d="M 0.203125 0 L 0.203125 -14.1875 L 5.46875 -14.1875 L 5.46875 0 Z M 0.203125 0 "/></g></g></g><g transform="matrix(1, 0, 0, 1, 16, 12)"><g clip-path="url(#db2cff0aa8)"><g fill="#00598a" fill-opacity="1"><g transform="translate(0.881052, 61.700496)"><g><path d="M 0.703125 0 L 0.703125 -45.046875 L 19.171875 -45.046875 C 23.679688 -45.046875 27.445312 -44.582031 30.46875 -43.65625 C 33.5 -42.738281 35.914062 -41.460938 37.71875 -39.828125 C 39.519531 -38.203125 40.804688 -36.328125 41.578125 -34.203125 C 42.347656 -32.078125 42.710938 -29.835938 42.671875 -27.484375 C 42.671875 -25.941406 42.410156 -24.40625 41.890625 -22.875 C 41.378906 -21.351562 40.597656 -20.003906 39.546875 -18.828125 C 38.492188 -17.648438 37.132812 -16.78125 35.46875 -16.21875 L 44.28125 0 L 26.78125 0 L 18.59375 -17.0625 L 18.59375 -23.234375 L 22.328125 -23.234375 C 23.578125 -23.234375 24.488281 -23.566406 25.0625 -24.234375 C 25.644531 -24.898438 25.9375 -25.617188 25.9375 -26.390625 C 25.9375 -27.203125 25.644531 -27.929688 25.0625 -28.578125 C 24.488281 -29.222656 23.578125 -29.546875 22.328125 -29.546875 L 17.4375 -29.546875 L 17.4375 0 Z M 0.703125 0 "/></g></g></g><g fill="#00598a" fill-opacity="1"><g transform="translate(44.262855, 61.700496)"><g><path d="M 37.71875 -45.046875 L 55.671875 0 L 37.71875 0 L 27.609375 -28 L 22.78125 -15 L 31.078125 -15 L 36.484375 0 L -0.125 0 L 17.5 -45.046875 Z M 37.71875 -45.046875 "/></g></g></g><g fill="#00598a" fill-opacity="1"><g transform="translate(99.873944, 61.700496)"><g><path d="M 29.34375 -25.546875 L 30.3125 -25.546875 L 26.703125 -31.40625 L 26.703125 -45.046875 L 43.4375 -45.046875 L 43.4375 0 L 26.515625 0 L 14.796875 -18.671875 L 13.765625 -18.671875 L 17.4375 -12.75 L 17.4375 0 L 0.703125 0 L 0.703125 -45.046875 L 16.796875 -45.046875 Z M 29.34375 -25.546875 "/></g></g></g></g></g><g fill="#00598a" fill-opacity="1"><g transform="translate(61.035428, 127.088463)"><g><path d="M 37.734375 -45.078125 L 55.703125 0 L 37.734375 0 L 27.625 -28.015625 L 22.796875 -15 L 31.09375 -15 L 36.515625 0 L -0.125 0 L 17.515625 -45.078125 Z M 37.734375 -45.078125 "/></g></g></g><g fill="#00598a" fill-opacity="1"><g transform="translate(116.674663, 127.088463)"><g><path d="M 0.640625 0 L 0.640625 -45.078125 L 17.390625 -45.078125 L 17.390625 -30 L 26.84375 -30 L 26.84375 -45.078125 L 43.59375 -45.078125 L 43.59375 0 L 26.84375 0 L 26.84375 -15.0625 L 17.390625 -15.0625 L 17.390625 0 Z M 0.640625 0 "/></g></g></g></svg>